<?xml version="1.0" standalone="no"?>
<!DOCTYPE svg PUBLIC "-//W3C//DTD SVG 20010904//EN"
 "http://www.w3.org/TR/2001/REC-SVG-20010904/DTD/svg10.dtd">
<svg version="1.0" xmlns="http://www.w3.org/2000/svg"
 width="508.000000pt" height="508.000000pt" viewBox="0 0 508.000000 508.000000"
 preserveAspectRatio="xMidYMid meet">
<metadata>
Created by potrace 1.14, written by Peter Selinger 2001-2017
</metadata>
<g transform="translate(0.000000,508.000000) scale(0.100000,-0.100000)"
fill="#000000" stroke="none">
<path d="M2895 4988 c-10 -40 -24 -80 -31 -89 -8 -8 -14 -18 -14 -22 0 -3 -14
-26 -30 -51 -37 -55 -99 -93 -210 -132 -47 -16 -86 -29 -88 -30 -2 -1 6 -19
17 -40 48 -89 -10 -229 -178 -424 -35 -41 -69 -79 -75 -85 -6 -5 -47 -50 -91
-99 -44 -50 -93 -104 -110 -122 -41 -44 -67 -73 -170 -189 -49 -55 -365 -378
-704 -718 -339 -340 -617 -620 -618 -622 -5 -8 8 3 112 100 55 51 112 103 127
116 14 13 59 54 100 90 89 81 134 119 140 119 3 0 4 -235 3 -522 -3 -558 -1
-546 -54 -660 -25 -56 -95 -130 -150 -157 -22 -12 -41 -22 -41 -24 0 -1 1140
1 1180 3 3 0 -15 10 -39 23 -90 45 -161 148 -192 277 -9 40 -13 175 -14 503
-1 246 2 447 6 447 4 0 26 -23 50 -51 24 -28 53 -61 64 -73 20 -22 113 -129
171 -195 17 -20 42 -49 55 -65 13 -16 33 -38 45 -50 11 -12 49 -55 85 -96 35
-41 71 -82 79 -90 8 -8 37 -41 64 -73 26 -32 50 -56 53 -54 2 3 4 235 5 515 0
486 -1 512 -19 535 -54 68 -166 190 -318 345 l-171 174 -72 0 c-40 0 -72 4
-72 8 0 7 61 66 353 344 34 32 150 143 257 246 346 333 385 369 393 370 4 0 7
-8 7 -19 0 -11 -62 -77 -152 -162 -204 -194 -226 -215 -292 -278 -60 -56 -73
-79 -19 -33 17 15 43 36 58 47 15 11 130 95 254 187 124 92 229 168 233 168 4
0 12 -25 19 -55 7 -31 16 -52 19 -48 4 4 18 40 30 78 55 169 114 227 294 285
l79 25 -79 25 c-88 26 -165 69 -206 113 -25 27 -77 123 -82 150 -4 23 -28 92
-35 100 -4 4 -15 -26 -26 -65z"/>
<path d="M830 4924 c0 -2 15 -10 34 -18 46 -19 112 -80 141 -130 13 -23 34
-70 46 -106 l23 -65 2 -783 c1 -431 3 -785 5 -787 3 -2 157 149 344 336 l339
339 2 428 c2 463 6 507 59 612 32 62 99 130 155 157 l43 20 -596 0 c-328 0
-597 -1 -597 -3z"/>
<path d="M2153 3497 c-2 -4 28 -39 68 -77 l73 -69 141 -3 140 -3 1 -1475 c0
-1152 -2 -1490 -12 -1542 -25 -133 -99 -245 -189 -287 -25 -12 -45 -22 -45
-24 0 -1 265 -2 588 -2 l588 0 -45 29 c-64 40 -87 69 -131 161 -40 81 -45 103
-58 210 -4 33 -7 706 -7 1495 l0 1435 405 2 c302 1 421 -1 467 -11 145 -31
280 -129 351 -256 l37 -65 3 239 c1 131 0 241 -2 243 -8 8 -2368 8 -2373 0z"/>
</g>
</svg>
